<?xml version="1.0" encoding="UTF-8" standalone="no"?>
<!DOCTYPE svg PUBLIC "-//W3C//DTD SVG 1.1//EN"
 "http://www.w3.org/Graphics/SVG/1.1/DTD/svg11.dtd">
<!-- Generated by graphviz version 2.36.0 (20140111.2315)
 -->
<!-- Title: network Pages: 1 -->
<svg width="486pt" height="373pt"
 viewBox="0.00 0.00 486.12 373.17" xmlns="http://www.w3.org/2000/svg" xmlns:xlink="http://www.w3.org/1999/xlink">
<g id="graph0" class="graph" transform="scale(1 1) rotate(0) translate(4 369.173)">
<title>network</title>
<polygon fill="none" stroke="none" points="-4,4 -4,-369.173 482.124,-369.173 482.124,4 -4,4"/>
<text text-anchor="middle" x="239.062" y="-7.8" font-family="Liberation Sans" font-size="14.00" fill="#c0c0c0">r³ network overview</text>
<!-- public -->
<g id="node1" class="node"><title>public</title>
<text text-anchor="middle" x="308.468" y="-192.376" font-family="Liberation Sans" font-size="14.00" fill="#c0c0c0">Public (36)</text>
<text text-anchor="middle" x="308.468" y="-177.376" font-family="Liberation Sans" font-size="14.00" fill="#c0c0c0">89.106.211.64/27</text>
</g>
<!-- inet -->
<g id="node2" class="node"><title>inet</title>
<text text-anchor="middle" x="179.234" y="-314.11" font-family="Liberation Sans" font-size="14.00" fill="#c0c0c0">Internet</text>
</g>
<!-- public&#45;&gt;inet -->
<g id="edge1" class="edge"><title>public&#45;&gt;inet</title>
<path fill="none" stroke="#c0c0c0" d="M282.326,-214.718C259.7,-237.344 227.175,-269.868 204.738,-292.306"/>
<polygon fill="#c0c0c0" stroke="#c0c0c0" points="284.803,-217.191 289.399,-207.645 279.853,-212.241 284.803,-217.191"/>
<polygon fill="#c0c0c0" stroke="#c0c0c0" points="202.14,-289.953 197.544,-299.499 207.09,-294.903 202.14,-289.953"/>
</g>
<!-- guests -->
<g id="node3" class="node"><title>guests</title>
<text text-anchor="middle" x="50" y="-184.876" font-family="Liberation Sans" font-size="14.00" fill="#c0c0c0">Guests (127)</text>
</g>
<!-- guests&#45;&gt;public -->
<g id="edge5" class="edge"><title>guests&#45;&gt;public</title>
<path fill="none" stroke="#c0c0c0" d="M100.142,-188.576C137.788,-188.576 189.985,-188.576 232.712,-188.576"/>
<polygon fill="#c0c0c0" stroke="#c0c0c0" points="232.793,-192.076 242.793,-188.576 232.793,-185.076 232.793,-192.076"/>
</g>
<!-- guests&#45;&gt;inet -->
<g id="edge2" class="edge"><title>guests&#45;&gt;inet</title>
<path fill="none" stroke="#c0c0c0" d="M68.242,-206.818C90.5631,-229.139 128.489,-267.064 153.7,-292.276"/>
<polygon fill="#c0c0c0" stroke="#c0c0c0" points="151.539,-295.064 161.085,-299.66 156.488,-290.114 151.539,-295.064"/>
<text text-anchor="middle" x="87.971" y="-253.347" font-family="Liberation Sans" font-size="14.00" fill="#c0c0c0">NAT, tc</text>
</g>
<!-- members -->
<g id="node4" class="node"><title>members</title>
<text text-anchor="middle" x="179.234" y="-63.142" font-family="Liberation Sans" font-size="14.00" fill="#c0c0c0">Members (128)</text>
<text text-anchor="middle" x="179.234" y="-48.142" font-family="Liberation Sans" font-size="14.00" fill="#c0c0c0">89.106.211.32/27</text>
</g>
<!-- guests&#45;&gt;members -->
<g id="edge4" class="edge"><title>guests&#45;&gt;members</title>
<path fill="none" stroke="#c0c0c0" d="M75.5061,-163.07C97.7648,-140.811 129.949,-108.626 152.55,-86.0261"/>
<polygon fill="#c0c0c0" stroke="#c0c0c0" points="72.8382,-160.788 68.242,-170.334 77.7879,-165.738 72.8382,-160.788"/>
<polygon fill="#c0c0c0" stroke="#c0c0c0" points="155.222,-88.3033 159.818,-78.7573 150.272,-83.3535 155.222,-88.3033"/>
<text text-anchor="middle" x="92.0279" y="-128.348" font-family="Liberation Sans" font-size="14.00" fill="#c0c0c0">firewall</text>
</g>
<!-- members&#45;&gt;public -->
<g id="edge6" class="edge"><title>members&#45;&gt;public</title>
<path fill="none" stroke="#c0c0c0" d="M198.303,-78.4108C220.446,-100.554 257.108,-137.216 282.002,-162.11"/>
<polygon fill="#c0c0c0" stroke="#c0c0c0" points="279.775,-164.832 289.32,-169.429 284.724,-159.883 279.775,-164.832"/>
</g>
<!-- members&#45;&gt;inet -->
<g id="edge3" class="edge"><title>members&#45;&gt;inet</title>
<path fill="none" stroke="#c0c0c0" d="M179.234,-88.5623C179.234,-138.492 179.234,-239.625 179.234,-289.161"/>
<polygon fill="#c0c0c0" stroke="#c0c0c0" points="182.734,-88.3477 179.234,-78.3477 175.734,-88.3477 182.734,-88.3477"/>
<polygon fill="#c0c0c0" stroke="#c0c0c0" points="175.734,-289.47 179.234,-299.47 182.734,-289.47 175.734,-289.47"/>
<text text-anchor="middle" x="179.234" y="-177.662" font-family="Liberation Sans" font-size="14.00" fill="#c0c0c0">NAT || firewall</text>
</g>
<!-- mgmt -->
<g id="node5" class="node"><title>mgmt</title>
<text text-anchor="middle" x="399.621" y="-37.3" font-family="Liberation Sans" font-size="14.00" fill="#c0c0c0">Management (32)</text>
</g>
<!-- mgmt&#45;&gt;public -->
<g id="edge7" class="edge"><title>mgmt&#45;&gt;public</title>
<path fill="none" stroke="#c0c0c0" d="M388.444,-59.0957C372.761,-84.4851 344.088,-130.906 325.674,-160.719"/>
<polygon fill="#c0c0c0" stroke="#c0c0c0" points="322.592,-159.049 320.314,-169.396 328.547,-162.728 322.592,-159.049"/>
</g>
<!-- iot -->
<g id="node6" class="node"><title>iot</title>
<text text-anchor="middle" x="444.124" y="-198.37" font-family="Liberation Sans" font-size="14.00" fill="#c0c0c0">IoT (33)</text>
</g>
<!-- iot&#45;&gt;public -->
<g id="edge8" class="edge"><title>iot&#45;&gt;public</title>
<path fill="none" stroke="#c0c0c0" d="M409.892,-198.665C401.965,-197.876 393.219,-197.006 384.286,-196.118"/>
<polygon fill="#c0c0c0" stroke="#c0c0c0" points="384.451,-192.617 374.154,-195.11 383.758,-199.583 384.451,-192.617"/>
</g>
<!-- svc -->
<g id="node7" class="node"><title>svc</title>
<text text-anchor="middle" x="391.827" y="-343.473" font-family="Liberation Sans" font-size="14.00" fill="#c0c0c0">Services (34)</text>
</g>
<!-- svc&#45;&gt;public -->
<g id="edge9" class="edge"><title>svc&#45;&gt;public</title>
<path fill="none" stroke="#c0c0c0" d="M382.265,-328.98C367.863,-301.58 340.481,-249.483 323.424,-217.031"/>
<polygon fill="#c0c0c0" stroke="#c0c0c0" points="326.448,-215.261 318.697,-208.038 320.251,-218.518 326.448,-215.261"/>
</g>
</g>
</svg>
